<svg width="30" height="30" viewBox="0 0 30 30" fill="none" xmlns="http://www.w3.org/2000/svg">
<path d="M16.2862 5.78625L19.9375 3.52875L26.475 8.08687L22.4544 11.1656M22.6275 17.8831L26.5625 14.6706M22.6275 16.22L26.5625 13.0075M22.6275 14.5575L26.5625 11.345M22.6275 12.895L26.5625 9.6825M10.3231 8.965L15.1387 5.965L21.56 11.395V19.2487L17.8306 22.2712V14.8856L10.3231 8.965Z" stroke="white" stroke-width="0.5" stroke-linecap="round" stroke-linejoin="round"/>
<path d="M22.0712 8.8575L23.7731 7.55937L22.6075 6.78L21.6712 7.48687M3.4375 19.9713L11.9019 26.4713L16.5412 22.7775" stroke="white" stroke-width="0.5" stroke-linecap="round" stroke-linejoin="round"/>
<path d="M3.4375 18.3031L11.9019 24.8031L16.5412 21.1094" stroke="white" stroke-width="0.5" stroke-linecap="round" stroke-linejoin="round"/>
<path d="M3.5025 16.635L11.9669 23.1356L16.6063 19.4419" stroke="white" stroke-width="0.5" stroke-linecap="round" stroke-linejoin="round"/>
<path d="M3.49374 14.9675L11.9575 21.4675L16.5969 17.7738M12.6469 14.8438C12.5056 15.4856 11.5881 15.815 10.5981 15.5781C9.60812 15.3419 8.91999 14.63 9.06124 13.9875C9.20249 13.3456 10.12 13.0169 11.11 13.2531C12.1 13.4894 12.7881 14.2019 12.6469 14.8438Z" stroke="white" stroke-width="0.5" stroke-linecap="round" stroke-linejoin="round"/>
<path d="M9.40688 9.89125L3.5975 13.3881L11.9294 19.7113L16.7044 15.9519" stroke="white" stroke-width="0.5" stroke-linecap="round" stroke-linejoin="round"/>
</svg>
